<svg xmlns="http://www.w3.org/2000/svg" width="162.256" height="26.947" viewBox="0 0 162.256 26.947">
  <g id="Icon_Logo" data-name="Icon+Logo" transform="translate(81.128 13.473)">
    <g id="Icon_Logo-2" data-name="Icon+Logo" transform="translate(-81.128 -13.473)">
      <path id="Контур_3" data-name="Контур 3" d="M830.716,88.089l1.129-4.345,6.653.029a.889.889,0,0,0,1.142-.824l.447-2.149-13.147.029a.843.843,0,0,1,.8.544,1.891,1.891,0,0,1-.059,1.062l-3.73,16.053a4.976,4.976,0,0,0-.18,1.263.763.763,0,0,0,.159.5,1.069,1.069,0,0,0,.677.188h3.709c.075,0,.874.067.6-.025-.046-.017-.276-.1-.33-.13a.931.931,0,0,1-.222-.151.854.854,0,0,1-.263-.456,1.684,1.684,0,0,1,.067-.732q.786-3.35,1.581-6.7a1.478,1.478,0,0,1,.276-.661,1.5,1.5,0,0,1,1.167-.335l5.248.008a.815.815,0,0,0,.585-.155.623.623,0,0,0,.176-.418l.548-2.588Z" transform="translate(-789.327 -77.421)" fill="#121f39"/>
      <path id="Контур_4" data-name="Контур 4" d="M1153.311,188.039a1.013,1.013,0,0,1-.339-.585,2.523,2.523,0,0,1,.092-1.041l2.873-12.683a.891.891,0,0,0-1.02-1.3q-1.852-.021-3.709.017a1.384,1.384,0,0,1,.7,1.1,4.112,4.112,0,0,1-.142,1.351l-2.626,11.847c-.1.439-.155.987.213,1.242a1.154,1.154,0,0,0,.673.138c1.129,0,2.271-.05,3.4,0A.927.927,0,0,1,1153.311,188.039Z" transform="translate(-1101.016 -165.211)" fill="#121f39"/>
      <path id="Контур_5" data-name="Контур 5" d="M1230.9,82.966a.663.663,0,0,0,.117.276.431.431,0,0,0,.2.155.686.686,0,0,0,.226.025l2.639-.013.535-.008s.113-.493.142-.611a9.545,9.545,0,0,0,.276-1.234.9.9,0,0,0-.2-.795.939.939,0,0,0-.7-.171h-2.9l-.314,1.74A1.92,1.92,0,0,0,1230.9,82.966Z" transform="translate(-1179.407 -77.221)" fill="#121f39"/>
      <path id="Контур_6" data-name="Контур 6" d="M1296.222,170.93a.233.233,0,0,0,.042-.038,5.6,5.6,0,0,0,.686-2.191l-5.829-.017a6.5,6.5,0,0,0-2.634.355,4.842,4.842,0,0,0-2.246,2.379,7.529,7.529,0,0,0-.832,3.224,2.739,2.739,0,0,0,.347,1.535,2.994,2.994,0,0,0,1.652,1.1,32.989,32.989,0,0,1,3.542,1.079,1.187,1.187,0,0,1,.677.606,3.216,3.216,0,0,1-.1,1.087,1.843,1.843,0,0,1-.845,1.405,2.6,2.6,0,0,1-1.15.33,24.17,24.17,0,0,1-4.985.059,1.1,1.1,0,0,1-.435-.1c-.372-.192-.427-.694-.431-1.112a15.235,15.235,0,0,0-.828,2.814,1,1,0,0,0,.033.673c.172.309.594.355.949.36l4.893.084a15.329,15.329,0,0,0,2.839-.125,4.45,4.45,0,0,0,3.237-1.978,8.035,8.035,0,0,0,1.112-3.86,3.653,3.653,0,0,0-.226-1.74,3.164,3.164,0,0,0-1.714-1.468c-1.092-.464-2.292-.6-3.416-.979a1.442,1.442,0,0,1-.64-.355,1.584,1.584,0,0,1-.113-1.426,1.792,1.792,0,0,1,.632-1.179,1.746,1.746,0,0,1,.8-.209,22.715,22.715,0,0,1,3.425-.059A2.176,2.176,0,0,0,1296.222,170.93Z" transform="translate(-1229.17 -161.63)" fill="#121f39"/>
      <path id="Контур_7" data-name="Контур 7" d="M1616.765,100.1a.916.916,0,0,1-.418-.573,2.333,2.333,0,0,1,.08-1.071l2.363-10.069c.251-1.066.468-2.3-.209-3.166s-2-.941-3.128-.92l-1.447.029a3.885,3.885,0,0,0-1.422.2,3.983,3.983,0,0,0-1.777,2.074l1.133-5.047c.071-.322.113-.728-.163-.907a.79.79,0,0,0-.452-.084c-.749,0-1.5.008-2.241.013l-1.133.008h-.565c-.222,0-.042.088.038.171a1.547,1.547,0,0,1,.159,1.351l-3.692,16.936c-.08.364-.121.82.188,1.025a.927.927,0,0,0,.523.1l3.91-.008a.817.817,0,0,1-.79-.606,2.232,2.232,0,0,1,.088-1.083l.573-2.275,1.844-7.326a2.445,2.445,0,0,1,.259-.7,2.267,2.267,0,0,1,1.869-.782,2.371,2.371,0,0,1,1.735.381c.686.6.539,1.681.335,2.563l-2.007,8.677a1.1,1.1,0,0,0,.021.807c.188.318.627.351,1,.355h3.68A.853.853,0,0,1,1616.765,100.1Z" transform="translate(-1536.766 -77.205)" fill="#121f39"/>
      <path id="Контур_8" data-name="Контур 8" d="M1950.061,98.993a.975.975,0,0,1-.385-.289,3.357,3.357,0,0,1-.138-1.372l-.05-1.451-.146-4.169-.172-4.809-.146-4.194-.05-1.38a4.273,4.273,0,0,0-.088-1.288.971.971,0,0,0-.326-.5.919.919,0,0,0-.656-.13h-4.725a5.466,5.466,0,0,0-1.079.008.786.786,0,0,1,.473.732,1.594,1.594,0,0,1-.3.665c-.125.209-.293.51-.439.765l-1.689,2.931L1937.9,88.4l-2.312,4.019-1.915,3.329c-.347.6-.707,1.2-1.041,1.811a1.82,1.82,0,0,0-.28.736.645.645,0,0,0,.268.611,1.058,1.058,0,0,0,.627.125h3.63a2.441,2.441,0,0,0,.334-.008,2.72,2.72,0,0,1-.255-.117.932.932,0,0,1-.4-.669c-.117-.786.623-1.681,1-2.329l1.033-1.8.033-.059h6.607c0,1.326.025,2.651,0,3.973-.008.381.1.853.518.979a1.543,1.543,0,0,0,.443.042h2.037a14.436,14.436,0,0,0,1.9-.017Zm-9.635-8.079,4.407-7.682.247,7.682Z" transform="translate(-1851.55 -76.069)" fill="#121f39"/>
      <path id="Контур_9" data-name="Контур 9" d="M2372.051,183.682c-.134-.13-.43-.452-.43-.627a1.32,1.32,0,0,1-.138-.811c.113-.715.339-1.426.506-2.133l1.075-4.529.874-3.684a6.422,6.422,0,0,0,.288-1.84,2.33,2.33,0,0,0-.477-1.317,3.069,3.069,0,0,0-2.413-.895c-.631-.025-1.262.013-1.89.033a2.745,2.745,0,0,0-1.689.343,5.817,5.817,0,0,0-1.2,1.635,1.636,1.636,0,0,0,.071-.535,1.578,1.578,0,0,0,.008-.686c-.234-.8-1.212-.744-1.873-.774q-.874-.042-1.748-.029c-.3,0-.6,0-.9.025-.388.038-.012.184.075.364a.885.885,0,0,1,.075.176,4,4,0,0,1-.226,2.17l-.46,1.94-1.158,4.876c-.405,1.7-.815,3.4-1.208,5.1a1,1,0,0,0,.117.979,1.291,1.291,0,0,0,.983.259c.635,0,3.429.025,3.675-.038a1.321,1.321,0,0,1-.493-.464c-.23-.452.013-.987.126-1.443l.389-1.564,1.184-4.742.472-1.89a12.319,12.319,0,0,1,.435-1.664,1.684,1.684,0,0,1,1.506-.853,2.829,2.829,0,0,1,1.89.28.826.826,0,0,1,.251.527,4.588,4.588,0,0,1-.192,1.61l-.439,1.894-1.074,4.633-.376,1.618a4.933,4.933,0,0,0-.293,1.48c.071.627.69.619,1.183.606.585-.013,2.451.029,3.513-.025Z" transform="translate(-2260.498 -160.813)" fill="#121f39"/>
      <path id="Контур_10" data-name="Контур 10" d="M2704.234,173.094a1.724,1.724,0,0,0,.038-.226,1.254,1.254,0,0,0-.31-.928,1.633,1.633,0,0,0-1.33-.418c-.594.025-1.192.017-1.79.017-1.275,0-2.551.013-3.826.067a8.17,8.17,0,0,0-3.366.594,7.89,7.89,0,0,0-3.17,3.5q-.431.824-.849,1.827a12.1,12.1,0,0,0-.615,2.208,10.884,10.884,0,0,0,0,4.884,1.9,1.9,0,0,0,.406.761,3.088,3.088,0,0,0,2.229.9,18.582,18.582,0,0,0,2.421,0,3.068,3.068,0,0,0,1.948-.677,3.789,3.789,0,0,0,.916-1.129c.121-.217.226-.385.33-.606s.18-.355.3-.59a26.36,26.36,0,0,1-.732,2.873,3.086,3.086,0,0,1-.828,1.284,2.252,2.252,0,0,1-.853.5,3.7,3.7,0,0,1-1.1.063l-2.513-.013c-.305,0-.61-.013-.912-.008a5.69,5.69,0,0,1-1-.013,1.636,1.636,0,0,1-.966-.5,1.753,1.753,0,0,1-.268-.406c-.226-.514-.18-.305-.251-.059a13.137,13.137,0,0,0-.443,2.789,1.51,1.51,0,0,0,.669,1.033,4.287,4.287,0,0,0,2.137.431c.8.046,1.606.046,2.4.021,1.054-.033,2.124-.059,3.17-.176l.2-.025a11.736,11.736,0,0,0,1.363-.247,3.965,3.965,0,0,0,2.183-1.535,6.2,6.2,0,0,0,.728-1.38,7.758,7.758,0,0,0,.222-.92c.058-.222.113-.447.167-.669l.61-2.463.82-3.316.841-3.391.669-2.7.3-1.192C2704.209,173.2,2704.222,173.148,2704.234,173.094Zm-6.477,9.191a2.262,2.262,0,0,1-1.071.6q-.171.059-.343.1a6.1,6.1,0,0,1-2.007.1,1.445,1.445,0,0,1-.874-.28,1.144,1.144,0,0,1-.264-.393,3.077,3.077,0,0,1-.234-1.163,8.414,8.414,0,0,1,.594-2.94,13.59,13.59,0,0,1,.694-1.694,3.539,3.539,0,0,1,.694-1,3.055,3.055,0,0,1,1.865-.732c.811-.071,1.626-.071,2.438-.071.151,0,.33.017.33.017-.021.109-.075.347-.1.456l-.13.527-.263,1.087-.866,3.546-.322,1.334c-.033.138-.059.28-.1.418A.39.39,0,0,1,2697.757,182.285Z" transform="translate(-2575.315 -164.346)" fill="#121f39"/>
      <path id="Контур_11" data-name="Контур 11" d="M3253.659,172.214a6.151,6.151,0,0,0-.222-.945,2.291,2.291,0,0,0-.431-.774,2.063,2.063,0,0,0-.7-.527,2.62,2.62,0,0,0-.673-.2c-.285-.05-.627-.1-1.021-.146s-.824-.063-1.25-.088-.857-.038-1.3-.038h-.222q-.639,0-1.25.038t-1.2.088a8.763,8.763,0,0,0-1.008.134,3.363,3.363,0,0,0-.686.209,3.1,3.1,0,0,0-1.154.933,8.4,8.4,0,0,0-1.079,1.79,19.563,19.563,0,0,0-.9,2.292,20.83,20.83,0,0,0-.623,2.467q-.1.443-.159.857c-.042.276-.08.556-.108.836s-.034.552-.05.82-.025.535-.025.8a10.935,10.935,0,0,0,.063,1.179,7.631,7.631,0,0,0,.184,1.054,3.6,3.6,0,0,0,.33.87,2.475,2.475,0,0,0,.5.652,2.25,2.25,0,0,0,.456.305,2.391,2.391,0,0,0,.578.209c.213.05.43.092.647.121s.439.059.648.075a.23.23,0,0,0,.109.025h5.7a1.457,1.457,0,0,0,.28-.025l.234-.05a1.267,1.267,0,0,0,.184-.063,1.2,1.2,0,0,1,.184-.063.05.05,0,0,0,.038-.013l.038-.038a.068.068,0,0,1,.05-.025l.084-.05.063-.05c.067-.05.129-.1.2-.159a2.561,2.561,0,0,0,.2-.184,1.717,1.717,0,0,0,.184-.222,1.435,1.435,0,0,0,.159-.318l.87-3.492a2.958,2.958,0,0,1-2.082,1.087h0a1.637,1.637,0,0,1-.305.025h-4.257c-.042,0-.343-.038-.468-.063a3.061,3.061,0,0,1-.331-.084.878.878,0,0,1-.259-.134.987.987,0,0,1-.184-.184.4.4,0,0,1-.084-.134,1.162,1.162,0,0,1-.062-.184c-.017-.084-.029-.159-.038-.234a2.19,2.19,0,0,1-.013-.259q0-.293.038-.673a7.591,7.591,0,0,1,.134-.845c.05-.309.109-.636.18-.983l3.475.013,3.5.013h1.045a4.177,4.177,0,0,0,.489-.025,1.075,1.075,0,0,0,.368-.1.618.618,0,0,0,.222-.171.529.529,0,0,0,.1-.222l.063-.184a1.714,1.714,0,0,0,.063-.284c.034-.1.067-.209.1-.33s.067-.259.1-.406.067-.376.109-.59.075-.435.109-.665.063-.46.083-.7.046-.477.063-.723V173.2a6.489,6.489,0,0,0-.071-.983Zm-9.839,5.629h0C3243.823,177.851,3243.819,177.855,3243.819,177.842Zm.2-.761-.008.008.013-.067q0,.031,0,.063Zm.485-1.744c.034-.1.067-.2.1-.293a7.42,7.42,0,0,1,.456-1.154,4.219,4.219,0,0,1,.577-.882,1.922,1.922,0,0,1,.87-.552,4.17,4.17,0,0,1,1.313-.184,4.737,4.737,0,0,1,1.154.121,1.39,1.39,0,0,1,.711.393,1.594,1.594,0,0,1,.368.577,2,2,0,0,1,.121.7v.146a.5.5,0,0,1-.025.146,1.061,1.061,0,0,1-.013.171.817.817,0,0,0-.013.146q-.025.171-.062.33a2.992,2.992,0,0,1-.083.305Z" transform="translate(-3104.131 -162.412)" fill="#121f39"/>
      <path id="Контур_12" data-name="Контур 12" d="M3585.08,168.321l-.393,1.522-.113.443-.029.121v.008l-.072.28-.033.13a1.263,1.263,0,0,1-.945.682h-.009a1.19,1.19,0,0,1-.176.013,1.255,1.255,0,0,1-.188-.013l-2.555-.021h-.025l-.159-.008a1.605,1.605,0,0,0-1.062.4h0l-.025.021-.008.008h0l-.017.013h-.008l-.038.038h0a.44.44,0,0,0-.121.121.844.844,0,0,0-.071.121h0a1.6,1.6,0,0,0-.242.661l-2.354,10.057a1.277,1.277,0,0,0-.029.4.208.208,0,0,0,0,.046,1.071,1.071,0,0,0,.519.761h-3.663c-.113,0-.218,0-.31-.013a2.382,2.382,0,0,1-.255-.038,1.427,1.427,0,0,1-.172-.1.362.362,0,0,1-.121-.146l-.062-.109a.611.611,0,0,1-.059-.134l-.05-.146a.46.46,0,0,1-.025-.146v-.121l3.166-13.641a1.042,1.042,0,0,0,.038-.159.984.984,0,0,1,.038-.159,1.019,1.019,0,0,0,.038-.134.58.58,0,0,0,.013-.1.523.523,0,0,0-.435-.652l3.625-.025.292.008a.723.723,0,0,1,.489.217l.05.054a.538.538,0,0,1,.1.209,2.48,2.48,0,0,1,.075.247l.05.247v.615a.075.075,0,0,0,0,.021l.5-1a.968.968,0,0,1,.966-.6h.038Z" transform="translate(-3422.823 -161.262)" fill="#121f39"/>
      <path id="Контур_13" data-name="Контур 13" d="M3673.2,513.5v.025h0Z" transform="translate(-3519.6 -492.027)" fill="#121f39"/>
      <path id="Контур_14" data-name="Контур 14" d="M3739.9,249.863l.067-.063-.025.025-.038.038Z" transform="translate(-3583.51 -239.354)" fill="#121f39"/>
      <path id="Контур_15" data-name="Контур 15" d="M3673.2,513.5v.025h0Z" transform="translate(-3519.6 -492.027)" fill="#121f39"/>
      <path id="Контур_16" data-name="Контур 16" d="M3071.071,99.527h3.187a1.113,1.113,0,0,1-.331-.355.992.992,0,0,1-.055-.5,9.283,9.283,0,0,1,.188-1.008l.046-.226.134-.636.205-.979.264-1.259.309-1.472.339-1.618.355-1.7.36-1.723.351-1.677.326-1.564.289-1.388.243-1.154.175-.841c.034-.155.059-.318.1-.468a1.367,1.367,0,0,0,.033-.619.521.521,0,0,0-.355-.41.818.818,0,0,0-.18-.021c-.46-.021-.916-.033-1.38-.029l-1.707.013h-.744a4,4,0,0,0-.448,0h-.046a.912.912,0,0,1,.468.36.939.939,0,0,1,.2.456,5.5,5.5,0,0,1-.18,1.179l-.05.243-.167.786-.238,1.125-.293,1.388-.334,1.576-.36,1.694-.368,1.74-.364,1.706-.338,1.6-.3,1.422-.247,1.171-.18.845-.1.443-.013.05a5.946,5.946,0,0,0-.171.744,1.121,1.121,0,0,0,.422.878.922.922,0,0,0,.415.209Z" transform="translate(-2941.336 -76.54)" fill="#121f39"/>
      <line id="Линия_1" data-name="Линия 1" x1="0.544" y1="0.008" transform="translate(129.221 22.669)" fill="#121f39"/>
      <path id="Контур_17" data-name="Контур 17" d="M425.379,316.8a.075.075,0,0,0,.13.063l3.12-3.228a.075.075,0,0,0-.084-.125l-2.869,1.2Z" transform="translate(-407.591 -300.388)" fill="#121f39"/>
      <path id="Контур_18" data-name="Контур 18" d="M24.924,0H1.452S3.777.243,2.682,5.541c-.05.18-.117.355-.151.544L.118,19.775a4.965,4.965,0,0,0,5.01,6.084H20.366a7.569,7.569,0,0,0,7.155-6.084L29.934,6.084A4.962,4.962,0,0,0,24.924,0ZM26.35,5.712l-.155.874-8.02,6.937-.033.263,8-6.891L24.058,18.717a5.39,5.39,0,0,1-5.311,4.453H14.829a.8.8,0,0,1-.753-.527.8.8,0,0,1,.042-.682l1.263-2.287s-.443.611-2.551.427-1.689-1.347-1.689-1.347.1,1.526,2.986.581a4.358,4.358,0,0,0,3.2-3.237l.74-4.893-2.471,2.062a1.008,1.008,0,0,1-.531,1.857h-.021a1.012,1.012,0,0,1-.933-.619l-1,.832-7.552,6.3L4.254,22.732a1.814,1.814,0,0,1-1.146.435H2.895L5.989,5.624A3.237,3.237,0,0,1,9.176,2.952h14.9A2.255,2.255,0,0,1,26.35,5.712Z" transform="translate(-0.023)" fill="#121f39"/>
      <path id="Контур_19" data-name="Контур 19" d="M114.974,366.1l-2.174,4.842,6.866-5.62-5.035-1.02Z" transform="translate(-108.084 -349.066)" fill="#121f39"/>
    </g>
  </g>
</svg>
