<svg xmlns="http://www.w3.org/2000/svg" width="162.536" height="26.993" viewBox="0 0 162.536 26.993">
  <g id="Icon_Logo_Light" data-name="Icon+Logo_Light" transform="translate(81.268 13.497)">
    <g id="Icon_Logo_Light-2" data-name="Icon+Logo_Light" transform="translate(-81.268 -13.497)">
      <path id="Контур_142" data-name="Контур 142" d="M830.728,88.1l1.131-4.352,6.664.029a.89.89,0,0,0,1.143-.825l.448-2.153-13.17.029a.844.844,0,0,1,.8.545,1.893,1.893,0,0,1-.059,1.064l-3.736,16.081a4.985,4.985,0,0,0-.18,1.265.765.765,0,0,0,.159.5,1.071,1.071,0,0,0,.679.188h3.716c.075,0,.875.067.6-.025-.046-.017-.276-.1-.331-.13a.935.935,0,0,1-.222-.151.854.854,0,0,1-.264-.457,1.684,1.684,0,0,1,.067-.733q.788-3.355,1.583-6.711a1.48,1.48,0,0,1,.276-.662,1.506,1.506,0,0,1,1.169-.335l5.257.008a.817.817,0,0,0,.586-.155.624.624,0,0,0,.176-.419l.549-2.593Z" transform="translate(-789.268 -77.415)" fill="#fff"/>
      <path id="Контур_143" data-name="Контур 143" d="M1153.319,188.066a1.013,1.013,0,0,1-.339-.586,2.522,2.522,0,0,1,.092-1.043l2.878-12.7a.893.893,0,0,0-1.022-1.3q-1.855-.021-3.715.017a1.387,1.387,0,0,1,.7,1.106,4.116,4.116,0,0,1-.142,1.353l-2.631,11.867c-.1.44-.155.989.214,1.244a1.156,1.156,0,0,0,.674.138c1.131,0,2.275-.05,3.41,0A.907.907,0,0,1,1153.319,188.066Z" transform="translate(-1100.933 -165.199)" fill="#fff"/>
      <path id="Контур_144" data-name="Контур 144" d="M1230.9,82.971a.662.662,0,0,0,.117.276.432.432,0,0,0,.2.155.687.687,0,0,0,.226.025l2.643-.013.536-.008s.113-.494.142-.612a9.556,9.556,0,0,0,.276-1.236.9.9,0,0,0-.2-.8.941.941,0,0,0-.7-.172h-2.907l-.314,1.743A1.917,1.917,0,0,0,1230.9,82.971Z" transform="translate(-1179.319 -77.215)" fill="#fff"/>
      <path id="Контур_145" data-name="Контур 145" d="M1296.245,170.934a.236.236,0,0,0,.042-.038,5.615,5.615,0,0,0,.687-2.195l-5.839-.017a6.506,6.506,0,0,0-2.639.356,4.85,4.85,0,0,0-2.25,2.383,7.545,7.545,0,0,0-.834,3.23,2.742,2.742,0,0,0,.348,1.537,3,3,0,0,0,1.655,1.1,33.058,33.058,0,0,1,3.548,1.081,1.19,1.19,0,0,1,.679.607,3.221,3.221,0,0,1-.1,1.089,1.847,1.847,0,0,1-.846,1.407,2.6,2.6,0,0,1-1.152.331,24.211,24.211,0,0,1-4.993.059,1.106,1.106,0,0,1-.436-.1c-.373-.193-.427-.7-.431-1.114a15.23,15.23,0,0,0-.829,2.819,1,1,0,0,0,.033.674c.172.31.595.356.951.36l4.9.084a15.354,15.354,0,0,0,2.844-.126,4.457,4.457,0,0,0,3.242-1.981,8.05,8.05,0,0,0,1.114-3.866,3.659,3.659,0,0,0-.226-1.743A3.17,3.17,0,0,0,1294,175.4c-1.093-.465-2.3-.6-3.422-.98a1.445,1.445,0,0,1-.641-.356,1.586,1.586,0,0,1-.113-1.428,1.8,1.8,0,0,1,.632-1.181,1.75,1.75,0,0,1,.8-.209,22.754,22.754,0,0,1,3.431-.059A2.18,2.18,0,0,0,1296.245,170.934Z" transform="translate(-1229.077 -161.618)" fill="#fff"/>
      <path id="Контур_146" data-name="Контур 146" d="M1616.787,100.137a.917.917,0,0,1-.419-.574,2.337,2.337,0,0,1,.08-1.072l2.367-10.087c.251-1.068.469-2.308-.209-3.171s-2-.942-3.134-.922l-1.449.029a3.891,3.891,0,0,0-1.424.205,3.989,3.989,0,0,0-1.78,2.078l1.135-5.056c.071-.323.113-.729-.163-.909a.792.792,0,0,0-.453-.084c-.75,0-1.5.008-2.245.013l-1.135.008h-.566c-.222,0-.042.088.038.172a1.55,1.55,0,0,1,.159,1.353l-3.7,16.965c-.08.364-.122.821.188,1.026a.929.929,0,0,0,.524.1l3.917-.008a.818.818,0,0,1-.792-.607,2.235,2.235,0,0,1,.088-1.085l.574-2.279,1.847-7.339a2.453,2.453,0,0,1,.26-.7,2.271,2.271,0,0,1,1.873-.783,2.375,2.375,0,0,1,1.738.381c.687.6.54,1.684.335,2.568l-2.011,8.692a1.1,1.1,0,0,0,.021.808c.188.318.628.352,1,.356h3.686A.854.854,0,0,1,1616.787,100.137Z" transform="translate(-1536.65 -77.199)" fill="#fff"/>
      <path id="Контур_147" data-name="Контур 147" d="M1950.091,99.027a.978.978,0,0,1-.385-.289,3.368,3.368,0,0,1-.138-1.374l-.05-1.454-.147-4.176-.172-4.817-.147-4.2-.05-1.382a4.279,4.279,0,0,0-.088-1.29.972.972,0,0,0-.327-.5.921.921,0,0,0-.658-.13H1943.2a5.477,5.477,0,0,0-1.081.008.787.787,0,0,1,.473.733,1.6,1.6,0,0,1-.3.666c-.126.209-.293.511-.44.767l-1.692,2.936-2.245,3.9-2.316,4.026-1.919,3.334c-.348.6-.708,1.2-1.043,1.814a1.821,1.821,0,0,0-.281.737.646.646,0,0,0,.268.612,1.06,1.06,0,0,0,.628.126h3.636a2.444,2.444,0,0,0,.335-.008,2.723,2.723,0,0,1-.255-.117.933.933,0,0,1-.4-.67c-.117-.788.624-1.684,1-2.333l1.035-1.805.033-.059h6.619c0,1.328.025,2.656,0,3.979-.008.381.1.855.52.98a1.545,1.545,0,0,0,.444.042h2.04a14.464,14.464,0,0,0,1.906-.017Zm-9.651-8.093,4.415-7.695.247,7.695Z" transform="translate(-1851.41 -76.063)" fill="#fff"/>
      <path id="Контур_148" data-name="Контур 148" d="M2372.073,183.71c-.134-.13-.431-.452-.431-.628a1.323,1.323,0,0,1-.138-.813c.113-.716.339-1.428.507-2.136l1.077-4.537.875-3.69a6.435,6.435,0,0,0,.289-1.843,2.332,2.332,0,0,0-.478-1.319,3.073,3.073,0,0,0-2.417-.9c-.633-.025-1.265.013-1.893.034a2.752,2.752,0,0,0-1.693.343,5.842,5.842,0,0,0-1.2,1.638,1.622,1.622,0,0,0,.071-.536,1.576,1.576,0,0,0,.009-.687c-.235-.8-1.215-.746-1.877-.775q-.876-.042-1.751-.029c-.3,0-.6,0-.9.025-.39.038-.013.184.075.364a.888.888,0,0,1,.075.176,4,4,0,0,1-.226,2.174l-.461,1.944-1.16,4.884c-.406,1.7-.816,3.4-1.21,5.106a1.007,1.007,0,0,0,.117.98,1.293,1.293,0,0,0,.984.26c.637,0,3.435.025,3.682-.038a1.316,1.316,0,0,1-.494-.465c-.23-.452.012-.989.126-1.445l.389-1.567,1.186-4.75.473-1.893a12.4,12.4,0,0,1,.436-1.667,1.686,1.686,0,0,1,1.508-.855,2.834,2.834,0,0,1,1.893.281.829.829,0,0,1,.251.528,4.592,4.592,0,0,1-.193,1.613l-.44,1.9-1.077,4.641-.377,1.621a4.949,4.949,0,0,0-.293,1.483c.071.628.691.62,1.185.607.587-.013,2.455.029,3.519-.025Z" transform="translate(-2260.327 -160.801)" fill="#fff"/>
      <path id="Контур_149" data-name="Контур 149" d="M2704.263,173.1a1.771,1.771,0,0,0,.038-.226,1.255,1.255,0,0,0-.31-.93,1.635,1.635,0,0,0-1.332-.419c-.595.025-1.194.017-1.793.017-1.278,0-2.556.013-3.833.067a8.183,8.183,0,0,0-3.372.595,7.9,7.9,0,0,0-3.175,3.506q-.431.825-.85,1.831a12.107,12.107,0,0,0-.616,2.212,10.908,10.908,0,0,0,0,4.893,1.909,1.909,0,0,0,.406.762,3.093,3.093,0,0,0,2.233.9,18.6,18.6,0,0,0,2.425,0,3.074,3.074,0,0,0,1.952-.679,3.8,3.8,0,0,0,.917-1.131c.122-.218.226-.385.331-.607s.18-.356.3-.591a26.459,26.459,0,0,1-.733,2.878,3.093,3.093,0,0,1-.829,1.286,2.253,2.253,0,0,1-.855.5,3.7,3.7,0,0,1-1.1.063l-2.517-.013c-.306,0-.612-.013-.913-.008a5.7,5.7,0,0,1-1-.013,1.637,1.637,0,0,1-.968-.5,1.736,1.736,0,0,1-.268-.406c-.226-.515-.18-.306-.251-.059a13.132,13.132,0,0,0-.444,2.794,1.514,1.514,0,0,0,.67,1.035,4.3,4.3,0,0,0,2.141.431c.8.046,1.608.046,2.408.021,1.056-.033,2.128-.059,3.175-.176l.2-.025a11.768,11.768,0,0,0,1.366-.247,3.973,3.973,0,0,0,2.187-1.537,6.228,6.228,0,0,0,.729-1.382,7.782,7.782,0,0,0,.222-.922c.059-.222.113-.448.167-.67l.612-2.467.821-3.322.842-3.4.67-2.7.3-1.194C2704.238,173.205,2704.25,173.151,2704.263,173.1Zm-6.489,9.207a2.266,2.266,0,0,1-1.073.6q-.172.059-.344.1a6.112,6.112,0,0,1-2.011.1,1.445,1.445,0,0,1-.875-.281,1.134,1.134,0,0,1-.264-.394,3.063,3.063,0,0,1-.235-1.165,8.437,8.437,0,0,1,.595-2.945,13.6,13.6,0,0,1,.7-1.7,3.544,3.544,0,0,1,.7-1,3.06,3.06,0,0,1,1.868-.733c.813-.071,1.63-.071,2.442-.071.151,0,.331.017.331.017-.021.109-.075.348-.1.457l-.13.528-.264,1.089-.867,3.552-.323,1.336c-.033.138-.059.281-.1.419A.392.392,0,0,1,2697.774,182.3Z" transform="translate(-2575.12 -164.333)" fill="#fff"/>
      <path id="Контур_150" data-name="Контур 150" d="M3253.682,172.219a6.17,6.17,0,0,0-.222-.947,2.3,2.3,0,0,0-.432-.775,2.067,2.067,0,0,0-.7-.528,2.63,2.63,0,0,0-.675-.2c-.285-.05-.628-.1-1.022-.147s-.825-.063-1.252-.088-.859-.038-1.3-.038h-.222q-.641,0-1.253.038t-1.206.088a8.784,8.784,0,0,0-1.01.134,3.384,3.384,0,0,0-.687.209,3.107,3.107,0,0,0-1.156.934,8.422,8.422,0,0,0-1.081,1.793,19.626,19.626,0,0,0-.9,2.3,21,21,0,0,0-.624,2.471q-.1.444-.159.859c-.042.276-.08.557-.109.838s-.033.553-.05.821-.025.536-.025.8a10.848,10.848,0,0,0,.063,1.181,7.731,7.731,0,0,0,.184,1.056,3.582,3.582,0,0,0,.331.871,2.471,2.471,0,0,0,.5.653,2.263,2.263,0,0,0,.457.306,2.4,2.4,0,0,0,.578.209c.214.05.431.092.649.121s.439.059.649.075a.23.23,0,0,0,.109.025h5.714a1.45,1.45,0,0,0,.28-.025l.235-.05a1.249,1.249,0,0,0,.184-.063,1.219,1.219,0,0,1,.184-.063.051.051,0,0,0,.038-.013l.038-.038a.067.067,0,0,1,.05-.025l.084-.05.063-.05c.067-.05.13-.1.2-.159s.134-.117.2-.184a1.7,1.7,0,0,0,.185-.222,1.462,1.462,0,0,0,.159-.318l.871-3.5a2.965,2.965,0,0,1-2.086,1.089h0a1.631,1.631,0,0,1-.306.025h-4.264c-.042,0-.343-.038-.469-.063a3.048,3.048,0,0,1-.331-.084.874.874,0,0,1-.26-.134.984.984,0,0,1-.185-.184.4.4,0,0,1-.083-.134,1.142,1.142,0,0,1-.063-.184c-.017-.084-.03-.159-.038-.235a2.25,2.25,0,0,1-.012-.26q0-.293.038-.674a7.561,7.561,0,0,1,.134-.846c.05-.31.109-.637.18-.984l3.481.013,3.506.013h1.047a4.185,4.185,0,0,0,.49-.025,1.077,1.077,0,0,0,.368-.1.62.62,0,0,0,.222-.172.531.531,0,0,0,.1-.222l.063-.184a1.7,1.7,0,0,0,.063-.285c.033-.1.067-.209.1-.331s.067-.26.1-.406.067-.377.109-.591.075-.436.109-.666.063-.461.084-.7.046-.478.063-.725V173.2A6.544,6.544,0,0,0,3253.682,172.219Zm-9.856,5.638h0C3243.83,177.865,3243.826,177.869,3243.826,177.857Zm.2-.762-.008.008.012-.067a.6.6,0,0,0,0,.063Zm.486-1.747c.034-.1.067-.205.1-.293a7.446,7.446,0,0,1,.457-1.156,4.2,4.2,0,0,1,.578-.884,1.923,1.923,0,0,1,.871-.553,4.173,4.173,0,0,1,1.315-.184,4.746,4.746,0,0,1,1.156.121,1.4,1.4,0,0,1,.712.394,1.6,1.6,0,0,1,.369.578,2,2,0,0,1,.121.7v.147a.476.476,0,0,1-.025.147,1.064,1.064,0,0,1-.012.172.8.8,0,0,0-.012.147q-.025.172-.063.331a2.883,2.883,0,0,1-.084.306Z" transform="translate(-3103.897 -162.4)" fill="#fff"/>
      <path id="Контур_151" data-name="Контур 151" d="M3585.1,168.321l-.394,1.525-.113.444-.029.121v.008l-.071.281-.034.13a1.265,1.265,0,0,1-.947.683h-.008a1.2,1.2,0,0,1-.176.013,1.265,1.265,0,0,1-.189-.013l-2.56-.021h-.025l-.159-.008a1.608,1.608,0,0,0-1.064.4h0l-.025.021-.008.008h0l-.017.013h-.009l-.038.038h0a.441.441,0,0,0-.121.121.8.8,0,0,0-.071.121h0a1.6,1.6,0,0,0-.243.662l-2.358,10.074a1.279,1.279,0,0,0-.03.4.209.209,0,0,0,0,.046,1.073,1.073,0,0,0,.52.762h-3.669c-.113,0-.218,0-.31-.013a2.387,2.387,0,0,1-.256-.038,1.49,1.49,0,0,1-.172-.1.361.361,0,0,1-.121-.147l-.063-.109a.634.634,0,0,1-.058-.134l-.05-.147a.461.461,0,0,1-.025-.147v-.121l3.171-13.664a.965.965,0,0,0,.038-.159.989.989,0,0,1,.038-.159,1.1,1.1,0,0,0,.038-.134.557.557,0,0,0,.013-.1.524.524,0,0,0-.436-.653l3.632-.025.293.008a.724.724,0,0,1,.49.218l.05.054a.542.542,0,0,1,.1.209,2.308,2.308,0,0,1,.075.247l.05.247v.616a.075.075,0,0,0,0,.021l.5-1a.97.97,0,0,1,.968-.6h.038Z" transform="translate(-3422.565 -161.25)" fill="#fff"/>
      <path id="Контур_152" data-name="Контур 152" d="M3673.2,513.5v.025h0Z" transform="translate(-3519.334 -491.99)" fill="#fff"/>
      <path id="Контур_153" data-name="Контур 153" d="M3739.9,249.863l.067-.063-.025.025-.038.038Z" transform="translate(-3583.24 -239.336)" fill="#fff"/>
      <path id="Контур_154" data-name="Контур 154" d="M3673.2,513.5v.025h0Z" transform="translate(-3519.334 -491.99)" fill="#fff"/>
      <path id="Контур_155" data-name="Контур 155" d="M3071.073,99.561h3.192a1.111,1.111,0,0,1-.331-.356.989.989,0,0,1-.055-.5,9.2,9.2,0,0,1,.189-1.01l.046-.226.134-.637.206-.98.264-1.261.31-1.474.339-1.621.356-1.7.361-1.726.352-1.68.327-1.567.289-1.391.243-1.156.176-.842c.033-.155.059-.318.1-.469a1.364,1.364,0,0,0,.033-.62.522.522,0,0,0-.356-.411.818.818,0,0,0-.18-.021c-.461-.021-.917-.034-1.383-.029l-1.709.013h-.746a3.994,3.994,0,0,0-.448,0h-.046a.914.914,0,0,1,.469.36.944.944,0,0,1,.2.457,5.5,5.5,0,0,1-.18,1.181l-.05.243-.168.788-.239,1.127-.293,1.391-.335,1.579-.36,1.7-.369,1.743-.365,1.709-.339,1.6-.3,1.424-.247,1.173-.18.846-.1.444-.012.05a6,6,0,0,0-.172.746,1.122,1.122,0,0,0,.423.88.921.921,0,0,0,.415.209Z" transform="translate(-2941.114 -76.535)" fill="#fff"/>
      <line id="Линия_10" data-name="Линия 10" x1="0.545" y1="0.008" transform="translate(129.444 22.708)" fill="#fff"/>
      <path id="Контур_156" data-name="Контур 156" d="M425.379,316.806a.075.075,0,0,0,.13.063l3.125-3.234a.076.076,0,1,0-.084-.126l-2.874,1.2Z" transform="translate(-407.561 -300.365)" fill="#fff"/>
      <path id="Контур_157" data-name="Контур 157" d="M24.967,0H1.455S3.784.243,2.686,5.55c-.05.18-.117.356-.151.545L.119,19.809A4.974,4.974,0,0,0,5.137,25.9H20.4a7.582,7.582,0,0,0,7.167-6.095L29.985,6.095A4.97,4.97,0,0,0,24.967,0ZM26.4,5.722,26.24,6.6l-8.034,6.949-.034.264,8.013-6.9L24.1,18.749a5.4,5.4,0,0,1-5.32,4.461H14.855a.8.8,0,0,1-.754-.528A.8.8,0,0,1,14.143,22l1.265-2.291s-.444.612-2.555.427-1.692-1.349-1.692-1.349.1,1.529,2.991.582a4.366,4.366,0,0,0,3.2-3.242l.741-4.9-2.476,2.065a1.01,1.01,0,0,1-.532,1.86h-.021a1.014,1.014,0,0,1-.934-.62l-1,.834L5.572,21.678,4.261,22.771a1.817,1.817,0,0,1-1.148.436H2.9L6,5.634A3.242,3.242,0,0,1,9.192,2.957H24.117A2.259,2.259,0,0,1,26.4,5.722Z" transform="translate(-0.023)" fill="#fff"/>
      <path id="Контур_158" data-name="Контур 158" d="M114.978,366.1l-2.178,4.851,6.878-5.63-5.043-1.022Z" transform="translate(-108.076 -349.04)" fill="#fff"/>
    </g>
  </g>
</svg>
